<svg xmlns="http://www.w3.org/2000/svg" width="520" height="720" viewBox="0 0 520 720">
  <defs>
    <linearGradient id="bg5" x1="0" y1="0" x2="1" y2="1">
      <stop offset="0%" stop-color="#0f0a20"/>
      <stop offset="100%" stop-color="#150d28"/>
    </linearGradient>
    <linearGradient id="card5" x1="0" y1="0" x2="0" y2="1">
      <stop offset="0%" stop-color="#1e1030"/>
      <stop offset="100%" stop-color="#160c26"/>
    </linearGradient>
    <linearGradient id="chartFill" x1="0" y1="0" x2="0" y2="1">
      <stop offset="0%" stop-color="#8b5cf6" stop-opacity="0.4"/>
      <stop offset="100%" stop-color="#8b5cf6" stop-opacity="0"/>
    </linearGradient>
    <linearGradient id="chartFill2" x1="0" y1="0" x2="0" y2="1">
      <stop offset="0%" stop-color="#06b6d4" stop-opacity="0.3"/>
      <stop offset="100%" stop-color="#06b6d4" stop-opacity="0"/>
    </linearGradient>
  </defs>
  <rect width="520" height="720" rx="24" fill="url(#bg5)"/>
  <!-- Top bar -->
  <rect x="20" y="20" width="480" height="48" rx="12" fill="#160c26" opacity="0.9"/>
  <circle cx="44" cy="44" r="8" fill="#8b5cf6" opacity="0.3"/>
  <text x="60" y="48" font-family="system-ui" font-size="11" fill="#a78bfa" font-weight="600">AnalyticsHQ</text>
  <rect x="160" y="34" width="60" height="18" rx="5" fill="#8b5cf6" opacity="0.15"/>
  <text x="168" y="47" font-family="system-ui" font-size="9" fill="#8b5cf6">Overview</text>
  <text x="236" y="47" font-family="system-ui" font-size="9" fill="#a78bfa" opacity="0.4">Funnels</text>
  <text x="290" y="47" font-family="system-ui" font-size="9" fill="#a78bfa" opacity="0.4">Cohorts</text>
  <text x="346" y="47" font-family="system-ui" font-size="9" fill="#a78bfa" opacity="0.4">A/B Tests</text>
  <rect x="430" y="34" width="54" height="18" rx="5" fill="#8b5cf6"/>
  <text x="440" y="47" font-family="system-ui" font-size="9" fill="white" font-weight="600">Live</text>
  <circle cx="462" cy="43" r="3" fill="#10b981">
    <animate attributeName="opacity" values="1;0.3;1" dur="2s" repeatCount="indefinite"/>
  </circle>

  <!-- KPI Row -->
  <rect x="20" y="82" width="115" height="76" rx="12" fill="url(#card5)" stroke="#8b5cf620" stroke-width="1"/>
  <text x="32" y="104" font-family="system-ui" font-size="9" fill="#a78bfa" opacity="0.6">Events Today</text>
  <text x="32" y="126" font-family="system-ui" font-size="20" fill="white" font-weight="700">4.2M</text>
  <text x="32" y="144" font-family="system-ui" font-size="9" fill="#10b981">↑ 18.4%</text>

  <rect x="143" y="82" width="115" height="76" rx="12" fill="url(#card5)" stroke="#8b5cf620" stroke-width="1"/>
  <text x="155" y="104" font-family="system-ui" font-size="9" fill="#a78bfa" opacity="0.6">Active Users</text>
  <text x="155" y="126" font-family="system-ui" font-size="20" fill="white" font-weight="700">28.5K</text>
  <text x="155" y="144" font-family="system-ui" font-size="9" fill="#10b981">↑ 5.2%</text>

  <rect x="266" y="82" width="115" height="76" rx="12" fill="url(#card5)" stroke="#8b5cf620" stroke-width="1"/>
  <text x="278" y="104" font-family="system-ui" font-size="9" fill="#a78bfa" opacity="0.6">Conversion</text>
  <text x="278" y="126" font-family="system-ui" font-size="20" fill="white" font-weight="700">3.8%</text>
  <text x="278" y="144" font-family="system-ui" font-size="9" fill="#10b981">↑ 0.4%</text>

  <rect x="389" y="82" width="111" height="76" rx="12" fill="url(#card5)" stroke="#8b5cf620" stroke-width="1"/>
  <text x="401" y="104" font-family="system-ui" font-size="9" fill="#a78bfa" opacity="0.6">Avg. Session</text>
  <text x="401" y="126" font-family="system-ui" font-size="20" fill="white" font-weight="700">4m 32s</text>
  <text x="401" y="144" font-family="system-ui" font-size="9" fill="#f59e0b">→ 0.1%</text>

  <!-- Main Chart -->
  <rect x="20" y="172" width="480" height="210" rx="14" fill="url(#card5)" stroke="#8b5cf615" stroke-width="1"/>
  <text x="36" y="200" font-family="system-ui" font-size="13" fill="white" font-weight="600">Event Stream</text>
  <text x="380" y="200" font-family="system-ui" font-size="9" fill="#a78bfa" opacity="0.5">Last 24 hours</text>
  <!-- Grid lines -->
  <line x1="36" y1="230" x2="484" y2="230" stroke="#8b5cf6" opacity="0.06"/>
  <line x1="36" y1="260" x2="484" y2="260" stroke="#8b5cf6" opacity="0.06"/>
  <line x1="36" y1="290" x2="484" y2="290" stroke="#8b5cf6" opacity="0.06"/>
  <line x1="36" y1="320" x2="484" y2="320" stroke="#8b5cf6" opacity="0.06"/>
  <line x1="36" y1="350" x2="484" y2="350" stroke="#8b5cf6" opacity="0.06"/>
  <!-- Area chart primary -->
  <polyline points="36,340 60,330 90,335 120,310 150,320 180,290 210,300 240,270 270,280 300,250 330,260 360,240 390,250 420,230 450,235 484,220" fill="none" stroke="#8b5cf6" stroke-width="2" stroke-linecap="round" stroke-linejoin="round"/>
  <polygon points="36,340 60,330 90,335 120,310 150,320 180,290 210,300 240,270 270,280 300,250 330,260 360,240 390,250 420,230 450,235 484,220 484,370 36,370" fill="url(#chartFill)"/>
  <!-- Area chart secondary -->
  <polyline points="36,355 60,350 90,348 120,340 150,342 180,330 210,335 240,320 270,325 300,310 330,315 360,305 390,312 420,300 450,305 484,290" fill="none" stroke="#06b6d4" stroke-width="1.5" stroke-linecap="round" stroke-linejoin="round" stroke-dasharray="4 2"/>
  <polygon points="36,355 60,350 90,348 120,340 150,342 180,330 210,335 240,320 270,325 300,310 330,315 360,305 390,312 420,300 450,305 484,290 484,370 36,370" fill="url(#chartFill2)"/>
  <!-- Legend -->
  <circle cx="46" cy="370" r="3" fill="#8b5cf6"/>
  <text x="54" y="374" font-family="system-ui" font-size="8" fill="#a78bfa" opacity="0.5">Page Views</text>
  <circle cx="130" cy="370" r="3" fill="#06b6d4"/>
  <text x="138" y="374" font-family="system-ui" font-size="8" fill="#06b6d4" opacity="0.5">Unique Sessions</text>

  <!-- Funnel + Donut -->
  <rect x="20" y="396" width="240" height="170" rx="14" fill="url(#card5)" stroke="#8b5cf615" stroke-width="1"/>
  <text x="36" y="424" font-family="system-ui" font-size="12" fill="white" font-weight="600">Conversion Funnel</text>
  <!-- Funnel stages -->
  <rect x="36" y="440" width="210" height="22" rx="4" fill="#8b5cf6" opacity="0.3"/>
  <text x="110" y="455" font-family="system-ui" font-size="8" fill="white" text-anchor="middle">Visit — 100K</text>
  <rect x="56" y="466" width="170" height="22" rx="4" fill="#8b5cf6" opacity="0.25"/>
  <text x="110" y="481" font-family="system-ui" font-size="8" fill="white" text-anchor="middle">Signup — 42K</text>
  <rect x="76" y="492" width="130" height="22" rx="4" fill="#8b5cf6" opacity="0.2"/>
  <text x="110" y="507" font-family="system-ui" font-size="8" fill="white" text-anchor="middle">Trial — 18K</text>
  <rect x="96" y="518" width="90" height="22" rx="4" fill="#8b5cf6" opacity="0.4"/>
  <text x="110" y="533" font-family="system-ui" font-size="8" fill="white" text-anchor="middle">Paid — 3.8K</text>
  <text x="36" y="555" font-family="system-ui" font-size="9" fill="#10b981">3.8% conversion rate</text>

  <rect x="274" y="396" width="226" height="170" rx="14" fill="url(#card5)" stroke="#8b5cf615" stroke-width="1"/>
  <text x="290" y="424" font-family="system-ui" font-size="12" fill="white" font-weight="600">Traffic Sources</text>
  <!-- Donut chart -->
  <circle cx="387" cy="500" r="50" fill="none" stroke="#8b5cf6" stroke-width="14" stroke-dasharray="100 215" stroke-dashoffset="0"/>
  <circle cx="387" cy="500" r="50" fill="none" stroke="#06b6d4" stroke-width="14" stroke-dasharray="70 245" stroke-dashoffset="-100"/>
  <circle cx="387" cy="500" r="50" fill="none" stroke="#10b981" stroke-width="14" stroke-dasharray="50 265" stroke-dashoffset="-170"/>
  <circle cx="387" cy="500" r="50" fill="none" stroke="#f59e0b" stroke-width="14" stroke-dasharray="40 275" stroke-dashoffset="-220"/>
  <circle cx="387" cy="500" r="36" fill="#160c26"/>
  <text x="377" y="504" font-family="system-ui" font-size="12" fill="white" font-weight="700">100M</text>
  <!-- Legend -->
  <circle cx="296" cy="440" r="4" fill="#8b5cf6"/>
  <text x="306" y="444" font-family="system-ui" font-size="8" fill="#a78bfa" opacity="0.6">Direct 32%</text>
  <circle cx="296" cy="456" r="4" fill="#06b6d4"/>
  <text x="306" y="460" font-family="system-ui" font-size="8" fill="#06b6d4" opacity="0.6">Organic 28%</text>
  <circle cx="296" cy="472" r="4" fill="#10b981"/>
  <text x="306" y="476" font-family="system-ui" font-size="8" fill="#10b981" opacity="0.6">Referral 22%</text>
  <circle cx="296" cy="488" r="4" fill="#f59e0b"/>
  <text x="306" y="492" font-family="system-ui" font-size="8" fill="#f59e0b" opacity="0.6">Social 18%</text>

  <!-- Real-time bar -->
  <rect x="20" y="580" width="480" height="60" rx="14" fill="url(#card5)" stroke="#8b5cf615" stroke-width="1"/>
  <text x="36" y="606" font-family="system-ui" font-size="11" fill="white" font-weight="600">Real-Time Events</text>
  <circle cx="140" cy="602" r="3" fill="#10b981">
    <animate attributeName="opacity" values="1;0.3;1" dur="1.5s" repeatCount="indefinite"/>
  </circle>
  <text x="148" y="606" font-family="system-ui" font-size="9" fill="#10b981">Live</text>
  <!-- Mini real-time bars -->
  <rect x="200" y="610" width="6" height="12" rx="1" fill="#8b5cf6" opacity="0.3"/>
  <rect x="210" y="605" width="6" height="17" rx="1" fill="#8b5cf6" opacity="0.4"/>
  <rect x="220" y="600" width="6" height="22" rx="1" fill="#8b5cf6" opacity="0.5"/>
  <rect x="230" y="608" width="6" height="14" rx="1" fill="#8b5cf6" opacity="0.35"/>
  <rect x="240" y="596" width="6" height="26" rx="1" fill="#8b5cf6" opacity="0.6"/>
  <rect x="250" y="602" width="6" height="20" rx="1" fill="#8b5cf6" opacity="0.45"/>
  <rect x="260" y="594" width="6" height="28" rx="1" fill="#8b5cf6" opacity="0.7"/>
  <rect x="270" y="598" width="6" height="24" rx="1" fill="#8b5cf6" opacity="0.55"/>
  <rect x="280" y="590" width="6" height="32" rx="1" fill="#8b5cf6" opacity="0.8"/>
  <rect x="290" y="596" width="6" height="26" rx="1" fill="#8b5cf6" opacity="0.6"/>
  <rect x="300" y="600" width="6" height="22" rx="1" fill="#8b5cf6" opacity="0.5"/>
  <rect x="310" y="594" width="6" height="28" rx="1" fill="#8b5cf6" opacity="0.65"/>
  <rect x="320" y="588" width="6" height="34" rx="1" fill="#8b5cf6"/>
  <text x="400" y="610" font-family="system-ui" font-size="16" fill="white" font-weight="700">842</text>
  <text x="400" y="626" font-family="system-ui" font-size="8" fill="#a78bfa" opacity="0.5">events/sec</text>

  <!-- Anomaly alert -->
  <rect x="20" y="654" width="480" height="48" rx="12" fill="#f59e0b" opacity="0.08" stroke="#f59e0b30" stroke-width="1"/>
  <text x="44" y="682" font-family="system-ui" font-size="10" fill="#f59e0b">⚠ Anomaly Detected: Unusual traffic spike from AP region (+340% above baseline)</text>
</svg>