<svg xmlns="http://www.w3.org/2000/svg" width="520" height="720" viewBox="0 0 520 720">
  <defs>
    <linearGradient id="bg4" x1="0" y1="0" x2="1" y2="1">
      <stop offset="0%" stop-color="#1a0a1e"/>
      <stop offset="100%" stop-color="#1f0d22"/>
    </linearGradient>
    <linearGradient id="card4" x1="0" y1="0" x2="0" y2="1">
      <stop offset="0%" stop-color="#251028"/>
      <stop offset="100%" stop-color="#1d0c20"/>
    </linearGradient>
  </defs>
  <rect width="520" height="720" rx="24" fill="url(#bg4)"/>
  <!-- Sidebar -->
  <rect x="20" y="20" width="140" height="680" rx="14" fill="#1a0c1e" opacity="0.8"/>
  <circle cx="52" cy="48" r="10" fill="#ec4899" opacity="0.2"/>
  <text x="68" y="52" font-family="system-ui" font-size="11" fill="#f472b6" font-weight="600">Notes</text>
  <!-- Sidebar items -->
  <rect x="32" y="78" width="116" height="30" rx="6" fill="#ec4899" opacity="0.1"/>
  <text x="44" y="97" font-family="system-ui" font-size="9" fill="#ec4899">📄 All Notes</text>
  <text x="44" y="122" font-family="system-ui" font-size="9" fill="#f472b6" opacity="0.5">📁 Engineering</text>
  <text x="44" y="142" font-family="system-ui" font-size="9" fill="#f472b6" opacity="0.5">📁 Design System</text>
  <text x="44" y="162" font-family="system-ui" font-size="9" fill="#f472b6" opacity="0.5">📁 API Docs</text>
  <text x="44" y="182" font-family="system-ui" font-size="9" fill="#f472b6" opacity="0.5">📁 Meeting Notes</text>
  <!-- Separator -->
  <line x1="32" y1="200" x2="148" y2="200" stroke="#ec4899" opacity="0.1"/>
  <text x="44" y="222" font-family="system-ui" font-size="9" fill="#f472b6" opacity="0.5">⭐ Favorites</text>
  <text x="44" y="242" font-family="system-ui" font-size="9" fill="#f472b6" opacity="0.4">  Auth Flow</text>
  <text x="44" y="262" font-family="system-ui" font-size="9" fill="#f472b6" opacity="0.4">  Deploy Guide</text>
  <text x="44" y="288" font-family="system-ui" font-size="9" fill="#f472b6" opacity="0.5">🏷 Tags</text>
  <rect x="44" y="298" width="34" height="14" rx="4" fill="#ec4899" opacity="0.1"/>
  <text x="50" y="308" font-family="system-ui" font-size="7" fill="#ec4899">react</text>
  <rect x="82" y="298" width="30" height="14" rx="4" fill="#818cf8" opacity="0.1"/>
  <text x="88" y="308" font-family="system-ui" font-size="7" fill="#818cf8">api</text>
  <rect x="44" y="316" width="34" height="14" rx="4" fill="#10b981" opacity="0.1"/>
  <text x="50" y="326" font-family="system-ui" font-size="7" fill="#10b981">docs</text>
  <!-- Online users -->
  <text x="32" y="660" font-family="system-ui" font-size="8" fill="#f472b6" opacity="0.4">Online Now</text>
  <circle cx="44" cy="678" r="8" fill="#ec4899" opacity="0.2"/>
  <circle cx="44" cy="678" r="2" fill="#10b981"/>
  <circle cx="64" cy="678" r="8" fill="#818cf8" opacity="0.2"/>
  <circle cx="64" cy="678" r="2" fill="#10b981"/>
  <circle cx="84" cy="678" r="8" fill="#f59e0b" opacity="0.2"/>
  <circle cx="84" cy="678" r="2" fill="#10b981"/>
  <text x="100" y="682" font-family="system-ui" font-size="8" fill="#f472b6" opacity="0.4">+7</text>

  <!-- Main content area -->
  <rect x="174" y="20" width="326" height="48" rx="12" fill="#1a0c1e" opacity="0.6"/>
  <text x="190" y="48" font-family="system-ui" font-size="12" fill="white" font-weight="600">Authentication Flow Design</text>
  <rect x="420" y="34" width="26" height="20" rx="4" fill="#ec4899" opacity="0.15"/>
  <text x="426" y="48" font-family="system-ui" font-size="8" fill="#ec4899">✎</text>
  <rect x="450" y="34" width="38" height="20" rx="4" fill="#ec4899" opacity="0.15"/>
  <text x="456" y="48" font-family="system-ui" font-size="8" fill="#ec4899">Share</text>

  <!-- Block editor content -->
  <rect x="174" y="80" width="326" height="620" rx="14" fill="url(#card4)" stroke="#ec489920" stroke-width="1"/>
  <!-- Heading block -->
  <text x="196" y="118" font-family="system-ui" font-size="18" fill="white" font-weight="700">Authentication Flow</text>
  <text x="196" y="140" font-family="system-ui" font-size="10" fill="#f472b6" opacity="0.5">Last edited 2 min ago by Vivek</text>

  <!-- Text block -->
  <rect x="196" y="158" width="280" height="6" rx="2" fill="#f472b6" opacity="0.15"/>
  <rect x="196" y="170" width="260" height="6" rx="2" fill="#f472b6" opacity="0.12"/>
  <rect x="196" y="182" width="240" height="6" rx="2" fill="#f472b6" opacity="0.1"/>

  <!-- Subheading -->
  <text x="196" y="212" font-family="system-ui" font-size="14" fill="white" font-weight="600">OAuth 2.0 Flow</text>

  <!-- Code block -->
  <rect x="196" y="226" width="280" height="110" rx="8" fill="#120820"/>
  <rect x="196" y="226" width="280" height="24" rx="8" fill="#1a0e24"/>
  <text x="208" y="242" font-family="system-ui" font-size="9" fill="#f472b6" opacity="0.6">auth-handler.ts</text>
  <rect x="430" y="232" width="36" height="14" rx="4" fill="#ec4899" opacity="0.1"/>
  <text x="436" y="242" font-family="system-ui" font-size="7" fill="#ec4899">Copy</text>
  <text x="208" y="266" font-family="monospace" font-size="9" fill="#ec4899" opacity="0.8">const</text>
  <text x="236" y="266" font-family="monospace" font-size="9" fill="white" opacity="0.7">handleAuth</text>
  <text x="300" y="266" font-family="monospace" font-size="9" fill="#ec4899" opacity="0.6">=</text>
  <text x="308" y="266" font-family="monospace" font-size="9" fill="#818cf8" opacity="0.7">async</text>
  <text x="338" y="266" font-family="monospace" font-size="9" fill="white" opacity="0.5">(req) =></text>
  <text x="218" y="282" font-family="monospace" font-size="9" fill="#ec4899" opacity="0.8">const</text>
  <text x="248" y="282" font-family="monospace" font-size="9" fill="white" opacity="0.7">token</text>
  <text x="278" y="282" font-family="monospace" font-size="9" fill="#ec4899" opacity="0.6">=</text>
  <text x="286" y="282" font-family="monospace" font-size="9" fill="#818cf8" opacity="0.7">await</text>
  <text x="316" y="282" font-family="monospace" font-size="9" fill="#10b981" opacity="0.7">verify</text>
  <text x="348" y="282" font-family="monospace" font-size="9" fill="white" opacity="0.5">()</text>
  <text x="218" y="298" font-family="monospace" font-size="9" fill="#ec4899" opacity="0.8">if</text>
  <text x="230" y="298" font-family="monospace" font-size="9" fill="white" opacity="0.5">(token.valid)</text>
  <text x="228" y="314" font-family="monospace" font-size="9" fill="#ec4899" opacity="0.8">return</text>
  <text x="262" y="314" font-family="monospace" font-size="9" fill="#10b981" opacity="0.7">session</text>
  <text x="302" y="314" font-family="monospace" font-size="9" fill="white" opacity="0.5">.create()</text>

  <!-- Diagram block -->
  <text x="196" y="358" font-family="system-ui" font-size="12" fill="white" font-weight="600">Flow Diagram</text>
  <rect x="196" y="370" width="280" height="100" rx="8" fill="#120820"/>
  <!-- Flow boxes -->
  <rect x="210" y="384" width="60" height="28" rx="6" fill="#ec4899" opacity="0.2" stroke="#ec489940"/>
  <text x="222" y="402" font-family="system-ui" font-size="8" fill="#ec4899">Login</text>
  <line x1="270" y1="398" x2="290" y2="398" stroke="#ec4899" opacity="0.3" stroke-width="1.5"/>
  <rect x="290" y="384" width="60" height="28" rx="6" fill="#818cf8" opacity="0.2" stroke="#818cf840"/>
  <text x="298" y="402" font-family="system-ui" font-size="8" fill="#818cf8">Verify</text>
  <line x1="350" y1="398" x2="370" y2="398" stroke="#818cf8" opacity="0.3" stroke-width="1.5"/>
  <rect x="370" y="384" width="60" height="28" rx="6" fill="#10b981" opacity="0.2" stroke="#10b98140"/>
  <text x="376" y="402" font-family="system-ui" font-size="8" fill="#10b981">Session</text>
  <!-- Decision diamond -->
  <polygon points="320,430 340,442 320,454 300,442" fill="#f59e0b" opacity="0.2" stroke="#f59e0b40"/>
  <text x="310" y="446" font-family="system-ui" font-size="7" fill="#f59e0b">2FA?</text>

  <!-- Checklist -->
  <text x="196" y="494" font-family="system-ui" font-size="12" fill="white" font-weight="600">Implementation Tasks</text>
  <rect x="196" y="506" width="14" height="14" rx="3" fill="#10b981" opacity="0.2" stroke="#10b98140"/>
  <text x="202" y="516" font-family="system-ui" font-size="8" fill="#10b981">✓</text>
  <text x="218" y="517" font-family="system-ui" font-size="10" fill="#f472b6" opacity="0.5" text-decoration="line-through">Setup OAuth provider</text>
  <rect x="196" y="526" width="14" height="14" rx="3" fill="#10b981" opacity="0.2" stroke="#10b98140"/>
  <text x="202" y="536" font-family="system-ui" font-size="8" fill="#10b981">✓</text>
  <text x="218" y="537" font-family="system-ui" font-size="10" fill="#f472b6" opacity="0.5" text-decoration="line-through">Implement JWT handler</text>
  <rect x="196" y="546" width="14" height="14" rx="3" fill="#ec4899" opacity="0.2" stroke="#ec489940"/>
  <text x="218" y="557" font-family="system-ui" font-size="10" fill="white" opacity="0.7">Add refresh token rotation</text>
  <rect x="196" y="566" width="14" height="14" rx="3" fill="#ec4899" opacity="0.1" stroke="#ec489930"/>
  <text x="218" y="577" font-family="system-ui" font-size="10" fill="white" opacity="0.5">Rate limiting middleware</text>

  <!-- Collaborator cursors -->
  <rect x="370" y="134" width="70" height="18" rx="4" fill="#10b981" opacity="0.2"/>
  <text x="378" y="147" font-family="system-ui" font-size="8" fill="#10b981">Arjun ▌</text>

  <!-- Stats bar -->
  <rect x="196" y="600" width="280" height="80" rx="8" fill="#120820"/>
  <text x="220" y="630" font-family="system-ui" font-size="18" fill="white" font-weight="700">10K+</text>
  <text x="220" y="648" font-family="system-ui" font-size="8" fill="#f472b6" opacity="0.5">Teams</text>
  <text x="310" y="630" font-family="system-ui" font-size="18" fill="white" font-weight="700">30+</text>
  <text x="310" y="648" font-family="system-ui" font-size="8" fill="#f472b6" opacity="0.5">Block Types</text>
  <text x="390" y="630" font-family="system-ui" font-size="18" fill="white" font-weight="700">99.9%</text>
  <text x="390" y="648" font-family="system-ui" font-size="8" fill="#f472b6" opacity="0.5">Uptime</text>
</svg>