<svg xmlns="http://www.w3.org/2000/svg" width="520" height="720" viewBox="0 0 520 720">
  <defs>
    <linearGradient id="bg2" x1="0" y1="0" x2="1" y2="1">
      <stop offset="0%" stop-color="#0a1a15"/>
      <stop offset="100%" stop-color="#0f1f18"/>
    </linearGradient>
    <linearGradient id="accent2" x1="0" y1="0" x2="1" y2="1">
      <stop offset="0%" stop-color="#10b981"/>
      <stop offset="100%" stop-color="#34d399"/>
    </linearGradient>
    <linearGradient id="card2" x1="0" y1="0" x2="0" y2="1">
      <stop offset="0%" stop-color="#162520"/>
      <stop offset="100%" stop-color="#111f1a"/>
    </linearGradient>
  </defs>
  <rect width="520" height="720" rx="24" fill="url(#bg2)"/>
  <!-- Top nav -->
  <rect x="20" y="20" width="480" height="48" rx="12" fill="#142220" opacity="0.9"/>
  <circle cx="44" cy="44" r="8" fill="#10b981" opacity="0.3"/>
  <rect x="60" y="36" width="75" height="14" rx="4" fill="#10b981" opacity="0.2"/>
  <text x="64" y="47" font-family="system-ui" font-size="10" fill="#34d399" font-weight="600">DevBoard</text>
  <!-- Nav tabs -->
  <rect x="170" y="34" width="50" height="18" rx="5" fill="#10b981" opacity="0.15"/>
  <text x="178" y="47" font-family="system-ui" font-size="9" fill="#10b981">Sprint</text>
  <rect x="228" y="34" width="48" height="18" rx="5" fill="transparent"/>
  <text x="236" y="47" font-family="system-ui" font-size="9" fill="#34d399" opacity="0.5">Code</text>
  <rect x="284" y="34" width="48" height="18" rx="5" fill="transparent"/>
  <text x="292" y="47" font-family="system-ui" font-size="9" fill="#34d399" opacity="0.5">CI/CD</text>
  <circle cx="460" cy="44" r="14" fill="#10b981" opacity="0.15"/>

  <!-- Sprint velocity -->
  <rect x="20" y="82" width="316" height="190" rx="14" fill="url(#card2)" stroke="#10b98120" stroke-width="1"/>
  <text x="36" y="110" font-family="system-ui" font-size="13" fill="white" font-weight="600">Sprint Velocity</text>
  <text x="240" y="110" font-family="system-ui" font-size="10" fill="#34d399" opacity="0.6">Sprint 24</text>
  <!-- Velocity chart bars -->
  <rect x="40" y="220" width="24" height="30" rx="4" fill="#10b981" opacity="0.25"/>
  <rect x="72" y="200" width="24" height="50" rx="4" fill="#10b981" opacity="0.3"/>
  <rect x="104" y="185" width="24" height="65" rx="4" fill="#10b981" opacity="0.35"/>
  <rect x="136" y="195" width="24" height="55" rx="4" fill="#10b981" opacity="0.4"/>
  <rect x="168" y="170" width="24" height="80" rx="4" fill="#10b981" opacity="0.5"/>
  <rect x="200" y="160" width="24" height="90" rx="4" fill="#10b981" opacity="0.6"/>
  <rect x="232" y="145" width="24" height="105" rx="4" fill="#10b981" opacity="0.7"/>
  <rect x="264" y="135" width="24" height="115" rx="4" fill="url(#accent2)"/>
  <rect x="296" y="150" width="24" height="100" rx="4" fill="#10b981" opacity="0.4"/>
  <!-- Velocity labels -->
  <text x="44" y="262" font-family="system-ui" font-size="8" fill="#34d399" opacity="0.4">S16</text>
  <text x="76" y="262" font-family="system-ui" font-size="8" fill="#34d399" opacity="0.4">S17</text>
  <text x="108" y="262" font-family="system-ui" font-size="8" fill="#34d399" opacity="0.4">S18</text>
  <text x="140" y="262" font-family="system-ui" font-size="8" fill="#34d399" opacity="0.4">S19</text>
  <text x="172" y="262" font-family="system-ui" font-size="8" fill="#34d399" opacity="0.4">S20</text>
  <text x="204" y="262" font-family="system-ui" font-size="8" fill="#34d399" opacity="0.4">S21</text>
  <text x="236" y="262" font-family="system-ui" font-size="8" fill="#34d399" opacity="0.4">S22</text>
  <text x="268" y="262" font-family="system-ui" font-size="8" fill="#34d399" opacity="0.4">S23</text>
  <text x="300" y="262" font-family="system-ui" font-size="8" fill="#34d399" opacity="0.4">S24</text>

  <!-- PR stats -->
  <rect x="350" y="82" width="150" height="90" rx="14" fill="url(#card2)" stroke="#10b98120" stroke-width="1"/>
  <text x="366" y="106" font-family="system-ui" font-size="10" fill="#34d399" opacity="0.7">Open PRs</text>
  <text x="366" y="134" font-family="system-ui" font-size="28" fill="white" font-weight="700">24</text>
  <text x="400" y="134" font-family="system-ui" font-size="10" fill="#10b981">↓ 8</text>
  <rect x="366" y="148" width="80" height="6" rx="3" fill="#1a2e26"/>
  <rect x="366" y="148" width="56" height="6" rx="3" fill="#10b981" opacity="0.6"/>
  <text x="366" y="163" font-family="system-ui" font-size="8" fill="#34d399" opacity="0.5">70% reviewed</text>

  <rect x="350" y="182" width="150" height="90" rx="14" fill="url(#card2)" stroke="#10b98120" stroke-width="1"/>
  <text x="366" y="206" font-family="system-ui" font-size="10" fill="#34d399" opacity="0.7">Build Health</text>
  <text x="366" y="234" font-family="system-ui" font-size="28" fill="#10b981" font-weight="700">98%</text>
  <rect x="366" y="248" width="80" height="6" rx="3" fill="#1a2e26"/>
  <rect x="366" y="248" width="78" height="6" rx="3" fill="#10b981"/>
  <text x="366" y="263" font-family="system-ui" font-size="8" fill="#34d399" opacity="0.5">All green</text>

  <!-- Kanban board -->
  <rect x="20" y="286" width="480" height="200" rx="14" fill="url(#card2)" stroke="#10b98120" stroke-width="1"/>
  <text x="36" y="314" font-family="system-ui" font-size="13" fill="white" font-weight="600">Sprint Board</text>
  <!-- Column headers -->
  <rect x="36" y="330" width="100" height="20" rx="5" fill="#10b981" opacity="0.1"/>
  <text x="52" y="344" font-family="system-ui" font-size="9" fill="#10b981">To Do (5)</text>
  <rect x="148" y="330" width="110" height="20" rx="5" fill="#f59e0b" opacity="0.1"/>
  <text x="160" y="344" font-family="system-ui" font-size="9" fill="#f59e0b">In Progress (3)</text>
  <rect x="270" y="330" width="100" height="20" rx="5" fill="#6366f1" opacity="0.1"/>
  <text x="286" y="344" font-family="system-ui" font-size="9" fill="#818cf8">Review (4)</text>
  <rect x="382" y="330" width="100" height="20" rx="5" fill="#10b981" opacity="0.2"/>
  <text x="400" y="344" font-family="system-ui" font-size="9" fill="#10b981">Done (12)</text>
  <!-- Cards in columns -->
  <rect x="36" y="358" width="100" height="40" rx="6" fill="#0f1d18" stroke="#10b98115"/>
  <rect x="44" y="366" width="60" height="5" rx="2" fill="#34d399" opacity="0.3"/>
  <rect x="44" y="376" width="40" height="5" rx="2" fill="#34d399" opacity="0.15"/>
  <rect x="88" y="386" width="12" height="6" rx="2" fill="#10b981" opacity="0.3"/>
  <rect x="36" y="404" width="100" height="40" rx="6" fill="#0f1d18" stroke="#10b98115"/>
  <rect x="44" y="412" width="55" height="5" rx="2" fill="#34d399" opacity="0.3"/>
  <rect x="44" y="422" width="45" height="5" rx="2" fill="#34d399" opacity="0.15"/>
  <rect x="36" y="450" width="100" height="30" rx="6" fill="#0f1d18" stroke="#10b98115"/>
  <rect x="44" y="458" width="50" height="5" rx="2" fill="#34d399" opacity="0.2"/>

  <rect x="148" y="358" width="110" height="40" rx="6" fill="#0f1d18" stroke="#f59e0b15"/>
  <rect x="156" y="366" width="65" height="5" rx="2" fill="#f59e0b" opacity="0.3"/>
  <rect x="156" y="376" width="50" height="5" rx="2" fill="#f59e0b" opacity="0.15"/>
  <rect x="148" y="404" width="110" height="40" rx="6" fill="#0f1d18" stroke="#f59e0b15"/>
  <rect x="156" y="412" width="70" height="5" rx="2" fill="#f59e0b" opacity="0.3"/>
  <rect x="156" y="422" width="45" height="5" rx="2" fill="#f59e0b" opacity="0.15"/>

  <rect x="270" y="358" width="100" height="40" rx="6" fill="#0f1d18" stroke="#6366f115"/>
  <rect x="278" y="366" width="55" height="5" rx="2" fill="#818cf8" opacity="0.3"/>
  <rect x="278" y="376" width="40" height="5" rx="2" fill="#818cf8" opacity="0.15"/>
  <rect x="270" y="404" width="100" height="40" rx="6" fill="#0f1d18" stroke="#6366f115"/>
  <rect x="278" y="412" width="60" height="5" rx="2" fill="#818cf8" opacity="0.3"/>

  <rect x="382" y="358" width="100" height="40" rx="6" fill="#0f1d18" stroke="#10b98120"/>
  <rect x="390" y="366" width="50" height="5" rx="2" fill="#10b981" opacity="0.4"/>
  <rect x="390" y="376" width="40" height="5" rx="2" fill="#10b981" opacity="0.2"/>
  <rect x="382" y="404" width="100" height="40" rx="6" fill="#0f1d18" stroke="#10b98120"/>
  <rect x="390" y="412" width="55" height="5" rx="2" fill="#10b981" opacity="0.4"/>
  <rect x="382" y="450" width="100" height="30" rx="6" fill="#0f1d18" stroke="#10b98120"/>
  <rect x="390" y="458" width="48" height="5" rx="2" fill="#10b981" opacity="0.3"/>

  <!-- CI/CD Pipeline -->
  <rect x="20" y="500" width="480" height="100" rx="14" fill="url(#card2)" stroke="#10b98120" stroke-width="1"/>
  <text x="36" y="528" font-family="system-ui" font-size="13" fill="white" font-weight="600">CI/CD Pipeline</text>
  <!-- Pipeline stages -->
  <rect x="36" y="542" width="80" height="40" rx="8" fill="#10b981" opacity="0.15" stroke="#10b98130"/>
  <text x="50" y="560" font-family="system-ui" font-size="9" fill="#10b981">Build ✓</text>
  <text x="50" y="574" font-family="system-ui" font-size="7" fill="#34d399" opacity="0.5">2m 14s</text>
  <line x1="116" y1="562" x2="136" y2="562" stroke="#10b981" opacity="0.3" stroke-width="2"/>
  <rect x="136" y="542" width="80" height="40" rx="8" fill="#10b981" opacity="0.15" stroke="#10b98130"/>
  <text x="154" y="560" font-family="system-ui" font-size="9" fill="#10b981">Test ✓</text>
  <text x="150" y="574" font-family="system-ui" font-size="7" fill="#34d399" opacity="0.5">5m 32s</text>
  <line x1="216" y1="562" x2="236" y2="562" stroke="#10b981" opacity="0.3" stroke-width="2"/>
  <rect x="236" y="542" width="80" height="40" rx="8" fill="#10b981" opacity="0.15" stroke="#10b98130"/>
  <text x="250" y="560" font-family="system-ui" font-size="9" fill="#10b981">Lint ✓</text>
  <text x="250" y="574" font-family="system-ui" font-size="7" fill="#34d399" opacity="0.5">1m 08s</text>
  <line x1="316" y1="562" x2="336" y2="562" stroke="#f59e0b" opacity="0.3" stroke-width="2"/>
  <rect x="336" y="542" width="80" height="40" rx="8" fill="#f59e0b" opacity="0.15" stroke="#f59e0b30"/>
  <text x="346" y="560" font-family="system-ui" font-size="9" fill="#f59e0b">Deploy ⏳</text>
  <text x="350" y="574" font-family="system-ui" font-size="7" fill="#f59e0b" opacity="0.5">Running...</text>
  <line x1="416" y1="562" x2="436" y2="562" stroke="#334155" opacity="0.3" stroke-width="2"/>
  <rect x="436" y="542" width="48" height="40" rx="8" fill="#1a2e26" stroke="#10b98115"/>
  <text x="446" y="566" font-family="system-ui" font-size="9" fill="#34d399" opacity="0.4">Prod</text>

  <!-- Activity feed -->
  <rect x="20" y="614" width="480" height="90" rx="14" fill="url(#card2)" stroke="#10b98120" stroke-width="1"/>
  <text x="36" y="640" font-family="system-ui" font-size="12" fill="white" font-weight="600">Recent Activity</text>
  <circle cx="44" cy="660" r="4" fill="#10b981"/>
  <text x="56" y="664" font-family="system-ui" font-size="9" fill="#34d399" opacity="0.7">PR #482 merged by arjun — "Fix auth middleware"</text>
  <text x="420" y="664" font-family="system-ui" font-size="8" fill="#34d399" opacity="0.4">2m ago</text>
  <circle cx="44" cy="682" r="4" fill="#f59e0b"/>
  <text x="56" y="686" font-family="system-ui" font-size="9" fill="#f59e0b" opacity="0.7">Deploy to staging — v2.14.3 in progress</text>
  <text x="420" y="686" font-family="system-ui" font-size="8" fill="#f59e0b" opacity="0.4">5m ago</text>
  <circle cx="44" cy="696" r="4" fill="#6366f1"/>
  <text x="56" y="700" font-family="system-ui" font-size="9" fill="#818cf8" opacity="0.7">Code review requested on PR #485</text>
  <text x="420" y="700" font-family="system-ui" font-size="8" fill="#818cf8" opacity="0.4">12m ago</text>
</svg>