<svg xmlns="http://www.w3.org/2000/svg" width="520" height="720" viewBox="0 0 520 720">
  <defs>
    <linearGradient id="bg3" x1="0" y1="0" x2="1" y2="1">
      <stop offset="0%" stop-color="#1a150a"/>
      <stop offset="100%" stop-color="#1f1a0d"/>
    </linearGradient>
    <linearGradient id="card3" x1="0" y1="0" x2="0" y2="1">
      <stop offset="0%" stop-color="#252010"/>
      <stop offset="100%" stop-color="#1d1a0c"/>
    </linearGradient>
    <linearGradient id="accent3" x1="0" y1="0" x2="1" y2="0">
      <stop offset="0%" stop-color="#f59e0b"/>
      <stop offset="100%" stop-color="#fbbf24"/>
    </linearGradient>
  </defs>
  <rect width="520" height="720" rx="24" fill="url(#bg3)"/>
  <!-- Top bar -->
  <rect x="20" y="20" width="480" height="48" rx="12" fill="#221e10" opacity="0.9"/>
  <circle cx="44" cy="44" r="8" fill="#f59e0b" opacity="0.4"/>
  <text x="60" y="48" font-family="system-ui" font-size="11" fill="#fbbf24" font-weight="600">PortfolioForge</text>
  <rect x="370" y="34" width="60" height="20" rx="6" fill="#f59e0b" opacity="0.15"/>
  <text x="378" y="48" font-family="system-ui" font-size="9" fill="#f59e0b">+ New</text>
  <rect x="440" y="34" width="40" height="20" rx="6" fill="#f59e0b"/>
  <text x="447" y="48" font-family="system-ui" font-size="9" fill="black" font-weight="600">Pro</text>

  <!-- Template showcase -->
  <text x="36" y="96" font-family="system-ui" font-size="14" fill="white" font-weight="600">Choose a Template</text>
  <text x="36" y="114" font-family="system-ui" font-size="10" fill="#fbbf24" opacity="0.5">50+ premium templates • AI-powered</text>

  <!-- Template cards row 1 -->
  <rect x="20" y="128" width="150" height="180" rx="14" fill="url(#card3)" stroke="#f59e0b20" stroke-width="1"/>
  <rect x="32" y="140" width="126" height="100" rx="8" fill="#2a2510"/>
  <!-- Mini portfolio preview -->
  <rect x="40" y="150" width="110" height="14" rx="3" fill="#f59e0b" opacity="0.2"/>
  <rect x="40" y="170" width="70" height="6" rx="2" fill="#fbbf24" opacity="0.15"/>
  <rect x="40" y="180" width="90" height="6" rx="2" fill="#fbbf24" opacity="0.1"/>
  <rect x="40" y="196" width="30" height="20" rx="4" fill="#f59e0b" opacity="0.15"/>
  <rect x="74" y="196" width="30" height="20" rx="4" fill="#f59e0b" opacity="0.15"/>
  <rect x="108" y="196" width="30" height="20" rx="4" fill="#f59e0b" opacity="0.15"/>
  <text x="32" y="260" font-family="system-ui" font-size="11" fill="white" font-weight="500">Minimal Dark</text>
  <text x="32" y="276" font-family="system-ui" font-size="9" fill="#fbbf24" opacity="0.5">4.9★ • 2.1K uses</text>
  <rect x="32" y="286" width="50" height="16" rx="4" fill="#f59e0b" opacity="0.15"/>
  <text x="40" y="298" font-family="system-ui" font-size="8" fill="#f59e0b">Popular</text>

  <rect x="185" y="128" width="150" height="180" rx="14" fill="url(#card3)" stroke="#f59e0b20" stroke-width="1"/>
  <rect x="197" y="140" width="126" height="100" rx="8" fill="#2a2510"/>
  <rect x="205" y="150" width="110" height="14" rx="3" fill="#818cf8" opacity="0.2"/>
  <rect x="205" y="170" width="70" height="6" rx="2" fill="#818cf8" opacity="0.15"/>
  <rect x="205" y="180" width="90" height="6" rx="2" fill="#818cf8" opacity="0.1"/>
  <circle cx="225" y="210" r="14" fill="#818cf8" opacity="0.15"/>
  <circle cx="260" y="210" r="14" fill="#818cf8" opacity="0.15"/>
  <circle cx="295" y="210" r="14" fill="#818cf8" opacity="0.15"/>
  <text x="197" y="260" font-family="system-ui" font-size="11" fill="white" font-weight="500">Creative Pro</text>
  <text x="197" y="276" font-family="system-ui" font-size="9" fill="#fbbf24" opacity="0.5">4.8★ • 1.8K uses</text>
  <rect x="197" y="286" width="38" height="16" rx="4" fill="#818cf8" opacity="0.15"/>
  <text x="203" y="298" font-family="system-ui" font-size="8" fill="#818cf8">New</text>

  <rect x="350" y="128" width="150" height="180" rx="14" fill="url(#card3)" stroke="#f59e0b20" stroke-width="1"/>
  <rect x="362" y="140" width="126" height="100" rx="8" fill="#2a2510"/>
  <rect x="370" y="150" width="50" height="50" rx="25" fill="#10b981" opacity="0.15"/>
  <rect x="370" y="210" width="90" height="6" rx="2" fill="#10b981" opacity="0.15"/>
  <rect x="370" y="220" width="70" height="6" rx="2" fill="#10b981" opacity="0.1"/>
  <text x="362" y="260" font-family="system-ui" font-size="11" fill="white" font-weight="500">Developer Hub</text>
  <text x="362" y="276" font-family="system-ui" font-size="9" fill="#fbbf24" opacity="0.5">4.7★ • 1.4K uses</text>
  <rect x="362" y="286" width="38" height="16" rx="4" fill="#10b981" opacity="0.15"/>
  <text x="368" y="298" font-family="system-ui" font-size="8" fill="#10b981">Dev</text>

  <!-- AI Editor -->
  <rect x="20" y="322" width="480" height="180" rx="14" fill="url(#card3)" stroke="#f59e0b20" stroke-width="1"/>
  <text x="36" y="350" font-family="system-ui" font-size="13" fill="white" font-weight="600">AI Content Editor</text>
  <rect x="380" y="338" width="100" height="22" rx="6" fill="#f59e0b" opacity="0.15"/>
  <text x="394" y="353" font-family="system-ui" font-size="9" fill="#f59e0b">✨ Generate</text>
  <!-- Editor content -->
  <rect x="36" y="368" width="450" height="120" rx="8" fill="#1a170a"/>
  <rect x="48" y="380" width="300" height="8" rx="2" fill="#fbbf24" opacity="0.2"/>
  <rect x="48" y="396" width="400" height="6" rx="2" fill="#fbbf24" opacity="0.1"/>
  <rect x="48" y="408" width="380" height="6" rx="2" fill="#fbbf24" opacity="0.1"/>
  <rect x="48" y="420" width="350" height="6" rx="2" fill="#fbbf24" opacity="0.1"/>
  <rect x="48" y="440" width="120" height="6" rx="2" fill="#fbbf24" opacity="0.1"/>
  <!-- AI suggestion bubble -->
  <rect x="48" y="456" width="280" height="24" rx="6" fill="#f59e0b" opacity="0.1" stroke="#f59e0b30"/>
  <text x="60" y="472" font-family="system-ui" font-size="9" fill="#fbbf24">✨ AI suggests: "Add React expertise with 6+ years..."</text>

  <!-- Deploy section -->
  <rect x="20" y="516" width="230" height="100" rx="14" fill="url(#card3)" stroke="#f59e0b20" stroke-width="1"/>
  <text x="36" y="544" font-family="system-ui" font-size="12" fill="white" font-weight="600">One-Click Deploy</text>
  <rect x="36" y="558" width="100" height="26" rx="6" fill="#f59e0b"/>
  <text x="48" y="576" font-family="system-ui" font-size="10" fill="black" font-weight="600">▲ Deploy Now</text>
  <rect x="146" y="558" width="90" height="26" rx="6" fill="#f59e0b" opacity="0.15"/>
  <text x="158" y="576" font-family="system-ui" font-size="10" fill="#f59e0b">Preview</text>
  <text x="36" y="604" font-family="system-ui" font-size="9" fill="#fbbf24" opacity="0.4">vivekraj.dev • SSL • CDN</text>

  <!-- SEO Score -->
  <rect x="264" y="516" width="236" height="100" rx="14" fill="url(#card3)" stroke="#f59e0b20" stroke-width="1"/>
  <text x="280" y="544" font-family="system-ui" font-size="12" fill="white" font-weight="600">SEO Score</text>
  <circle cx="440" cy="560" r="30" fill="none" stroke="#f59e0b" stroke-width="4" opacity="0.2"/>
  <circle cx="440" cy="560" r="30" fill="none" stroke="#f59e0b" stroke-width="4" stroke-dasharray="170 20" stroke-linecap="round"/>
  <text x="428" y="566" font-family="system-ui" font-size="16" fill="white" font-weight="700">96</text>
  <text x="280" y="568" font-family="system-ui" font-size="9" fill="#10b981">✓ Meta tags</text>
  <text x="280" y="582" font-family="system-ui" font-size="9" fill="#10b981">✓ Open Graph</text>
  <text x="280" y="596" font-family="system-ui" font-size="9" fill="#10b981">✓ Sitemap</text>

  <!-- Stats -->
  <rect x="20" y="630" width="480" height="72" rx="14" fill="url(#card3)" stroke="#f59e0b20" stroke-width="1"/>
  <text x="60" y="660" font-family="system-ui" font-size="20" fill="white" font-weight="700">5K+</text>
  <text x="60" y="678" font-family="system-ui" font-size="9" fill="#fbbf24" opacity="0.5">Portfolios/mo</text>
  <text x="180" y="660" font-family="system-ui" font-size="20" fill="white" font-weight="700">50+</text>
  <text x="180" y="678" font-family="system-ui" font-size="9" fill="#fbbf24" opacity="0.5">Templates</text>
  <text x="290" y="660" font-family="system-ui" font-size="20" fill="white" font-weight="700">97%</text>
  <text x="290" y="678" font-family="system-ui" font-size="9" fill="#fbbf24" opacity="0.5">Satisfaction</text>
  <text x="410" y="660" font-family="system-ui" font-size="20" fill="white" font-weight="700">4.9★</text>
  <text x="410" y="678" font-family="system-ui" font-size="9" fill="#fbbf24" opacity="0.5">User Rating</text>
</svg>